                                                                        S0000001
,,31HOpen CASCADE IGES processor 7.6,13HFilename.iges,                  G0000001
16HOpen CASCADE 7.6,31HOpen CASCADE IGES processor 7.6,32,308,15,308,15,G0000002
,1.,2,2HMM,1,0.01,15H20231122.141217,1E-07,14.478,,,11,0,               G0000003
15H20231122.141217,;                                                    G0000004
     402       1       0       0       0       0       0       000000000D0000001
     402       0       0       1       1                               0D0000002
     186       2       0       0       0       0       0       000020000D0000003
     186       0       0       1       0                               0D0000004
     514       3       0       0       0       0       0       000010000D0000005
     514       0       0       2       1                               0D0000006
     510       5       0       0       0       0       0       000010000D0000007
     510       0       0       1       1                               0D0000008
     190       6       0       0       0       0       0       000010000D0000009
     190       0       0       1       1                               0D0000010
     116       7       0       0       0       0       0       000010400D0000011
     116       0       0       1       0                               0D0000012
     123       8       0       0       0       0       0       000010200D0000013
     123       0       0       1       0                               0D0000014
     123       9       0       0       0       0       0       000010200D0000015
     123       0       0       1       0                               0D0000016
     508      10       0       0       0       0       0       000010000D0000017
     508       0       0       1       1                               0D0000018
     504      11       0       0       0       0       0       000010001D0000019
     504       0       0       6       1                               0D0000020
     110      17       0       0       0       0       0       000010000D0000021
     110       0       0       1       0                               0D0000022
     502      18       0       0       0       0       0       000010000D0000023
     502       0       0       6       1                               0D0000024
     110      24       0       0       0       0       0       000010000D0000025
     110       0       0       1       0                               0D0000026
     110      25       0       0       0       0       0       000010000D0000027
     110       0       0       1       0                               0D0000028
     110      26       0       0       0       0       0       000010000D0000029
     110       0       0       1       0                               0D0000030
     110      27       0       0       0       0       0       000010000D0000031
     110       0       0       1       0                               0D0000032
     110      28       0       0       0       0       0       000010000D0000033
     110       0       0       1       0                               0D0000034
     110      29       0       0       0       0       0       000010000D0000035
     110       0       0       1       0                               0D0000036
     110      30       0       0       0       0       0       000010000D0000037
     110       0       0       1       0                               0D0000038
     110      31       0       0       0       0       0       000010000D0000039
     110       0       0       1       0                               0D0000040
     110      32       0       0       0       0       0       000010000D0000041
     110       0       0       1       0                               0D0000042
     110      33       0       0       0       0       0       000010000D0000043
     110       0       0       1       0                               0D0000044
     100      34       0       0       0       0      47       000010000D0000045
     100       0       0       1       0                               0D0000046
     124      35       0       0       0       0       0       000000000D0000047
     124       0       0       1       0                               0D0000048
     100      36       0       0       0       0      51       000010000D0000049
     100       0       0       1       0                               0D0000050
     124      37       0       0       0       0       0       000000000D0000051
     124       0       0       1       0                               0D0000052
     110      38       0       0       0       0       0       000010000D0000053
     110       0       0       1       0                               0D0000054
     100      39       0       0       0       0      57       000010000D0000055
     100       0       0       1       0                               0D0000056
     124      40       0       0       0       0       0       000000000D0000057
     124       0       0       2       0                               0D0000058
     110      42       0       0       0       0       0       000010000D0000059
     110       0       0       1       0                               0D0000060
     100      43       0       0       0       0      63       000010000D0000061
     100       0       0       1       0                               0D0000062
     124      44       0       0       0       0       0       000000000D0000063
     124       0       0       1       0                               0D0000064
     110      45       0       0       0       0       0       000010000D0000065
     110       0       0       1       0                               0D0000066
     100      46       0       0       0       0      69       000010000D0000067
     100       0       0       1       0                               0D0000068
     124      47       0       0       0       0       0       000000000D0000069
     124       0       0       1       0                               0D0000070
     110      48       0       0       0       0       0       000010000D0000071
     110       0       0       1       0                               0D0000072
     100      49       0       0       0       0      75       000010000D0000073
     100       0       0       1       0                               0D0000074
     124      50       0       0       0       0       0       000000000D0000075
     124       0       0       2       0                               0D0000076
     100      52       0       0       0       0      79       000010000D0000077
     100       0       0       1       0                               0D0000078
     124      53       0       0       0       0       0       000000000D0000079
     124       0       0       2       0                               0D0000080
     110      55       0       0       0       0       0       000010000D0000081
     110       0       0       1       0                               0D0000082
     100      56       0       0       0       0      85       000010000D0000083
     100       0       0       1       0                               0D0000084
     124      57       0       0       0       0       0       000000000D0000085
     124       0       0       2       0                               0D0000086
     510      59       0       0       0       0       0       000010000D0000087
     510       0       0       1       1                               0D0000088
     190      60       0       0       0       0       0       000010000D0000089
     190       0       0       1       1                               0D0000090
     116      61       0       0       0       0       0       000010400D0000091
     116       0       0       1       0                               0D0000092
     123      62       0       0       0       0       0       000010200D0000093
     123       0       0       1       0                               0D0000094
     123      63       0       0       0       0       0       000010200D0000095
     123       0       0       1       0                               0D0000096
     508      64       0       0       0       0       0       000010000D0000097
     508       0       0       1       1                               0D0000098
     510      65       0       0       0       0       0       000010000D0000099
     510       0       0       1       1                               0D0000100
     190      66       0       0       0       0       0       000010000D0000101
     190       0       0       1       1                               0D0000102
     116      67       0       0       0       0       0       000010400D0000103
     116       0       0       1       0                               0D0000104
     123      68       0       0       0       0       0       000010200D0000105
     123       0       0       1       0                               0D0000106
     123      69       0       0       0       0       0       000010200D0000107
     123       0       0       1       0                               0D0000108
     508      70       0       0       0       0       0       000010000D0000109
     508       0       0       1       1                               0D0000110
     510      71       0       0       0       0       0       000010000D0000111
     510       0       0       1       1                               0D0000112
     190      72       0       0       0       0       0       000010000D0000113
     190       0       0       1       1                               0D0000114
     116      73       0       0       0       0       0       000010400D0000115
     116       0       0       1       0                               0D0000116
     123      74       0       0       0       0       0       000010200D0000117
     123       0       0       1       0                               0D0000118
     123      75       0       0       0       0       0       000010200D0000119
     123       0       0       1       0                               0D0000120
     508      76       0       0       0       0       0       000010000D0000121
     508       0       0       1       1                               0D0000122
     508      77       0       0       0       0       0       000010000D0000123
     508       0       0       1       1                               0D0000124
     508      78       0       0       0       0       0       000010000D0000125
     508       0       0       1       1                               0D0000126
     510      79       0       0       0       0       0       000010000D0000127
     510       0       0       1       1                               0D0000128
     190      80       0       0       0       0       0       000010000D0000129
     190       0       0       1       1                               0D0000130
     116      81       0       0       0       0       0       000010400D0000131
     116       0       0       1       0                               0D0000132
     123      82       0       0       0       0       0       000010200D0000133
     123       0       0       1       0                               0D0000134
     123      83       0       0       0       0       0       000010200D0000135
     123       0       0       1       0                               0D0000136
     508      84       0       0       0       0       0       000010000D0000137
     508       0       0       1       1                               0D0000138
     510      85       0       0       0       0       0       000010000D0000139
     510       0       0       1       1                               0D0000140
     190      86       0       0       0       0       0       000010000D0000141
     190       0       0       1       1                               0D0000142
     116      87       0       0       0       0       0       000010400D0000143
     116       0       0       1       0                               0D0000144
     123      88       0       0       0       0       0       000010200D0000145
     123       0       0       1       0                               0D0000146
     123      89       0       0       0       0       0       000010200D0000147
     123       0       0       1       0                               0D0000148
     508      90       0       0       0       0       0       000010000D0000149
     508       0       0       1       1                               0D0000150
     508      91       0       0       0       0       0       000010000D0000151
     508       0       0       1       1                               0D0000152
     510      92       0       0       0       0       0       000010000D0000153
     510       0       0       1       1                               0D0000154
     192      93       0       0       0       0       0       000010000D0000155
     192       0       0       1       1                               0D0000156
     116      94       0       0       0       0       0       000010400D0000157
     116       0       0       1       0                               0D0000158
     123      95       0       0       0       0       0       000010200D0000159
     123       0       0       1       0                               0D0000160
     123      96       0       0       0       0       0       000010200D0000161
     123       0       0       1       0                               0D0000162
     508      97       0       0       0       0       0       000010000D0000163
     508       0       0       2       1                               0D0000164
     110      99       0       0       0       0       0       000010000D0000165
     110       0       0       1       0                               0D0000166
     110     100       0       0       0       0       0       000010000D0000167
     110       0       0       1       0                               0D0000168
     110     101       0       0       0       0       0       000010000D0000169
     110       0       0       1       0                               0D0000170
     110     102       0       0       0       0       0       000010000D0000171
     110       0       0       1       0                               0D0000172
     510     103       0       0       0       0       0       000010000D0000173
     510       0       0       1       1                               0D0000174
     192     104       0       0       0       0       0       000010000D0000175
     192       0       0       1       1                               0D0000176
     116     105       0       0       0       0       0       000010400D0000177
     116       0       0       1       0                               0D0000178
     123     106       0       0       0       0       0       000010200D0000179
     123       0       0       1       0                               0D0000180
     123     107       0       0       0       0       0       000010200D0000181
     123       0       0       1       0                               0D0000182
     508     108       0       0       0       0       0       000010000D0000183
     508       0       0       2       1                               0D0000184
     110     110       0       0       0       0       0       000010000D0000185
     110       0       0       1       0                               0D0000186
     110     111       0       0       0       0       0       000010000D0000187
     110       0       0       1       0                               0D0000188
     110     112       0       0       0       0       0       000010000D0000189
     110       0       0       1       0                               0D0000190
     110     113       0       0       0       0       0       000010000D0000191
     110       0       0       1       0                               0D0000192
     510     114       0       0       0       0       0       000010000D0000193
     510       0       0       1       1                               0D0000194
     192     115       0       0       0       0       0       000010000D0000195
     192       0       0       1       1                               0D0000196
     116     116       0       0       0       0       0       000010400D0000197
     116       0       0       1       0                               0D0000198
     123     117       0       0       0       0       0       000010200D0000199
     123       0       0       1       0                               0D0000200
     123     118       0       0       0       0       0       000010200D0000201
     123       0       0       1       0                               0D0000202
     508     119       0       0       0       0       0       000010000D0000203
     508       0       0       2       1                               0D0000204
     110     121       0       0       0       0       0       000010000D0000205
     110       0       0       1       0                               0D0000206
     110     122       0       0       0       0       0       000010000D0000207
     110       0       0       1       0                               0D0000208
     110     123       0       0       0       0       0       000010000D0000209
     110       0       0       1       0                               0D0000210
     110     124       0       0       0       0       0       000010000D0000211
     110       0       0       1       0                               0D0000212
     510     125       0       0       0       0       0       000010000D0000213
     510       0       0       1       1                               0D0000214
     190     126       0       0       0       0       0       000010000D0000215
     190       0       0       1       1                               0D0000216
     116     127       0       0       0       0       0       000010400D0000217
     116       0       0       1       0                               0D0000218
     123     128       0       0       0       0       0       000010200D0000219
     123       0       0       1       0                               0D0000220
     123     129       0       0       0       0       0       000010200D0000221
     123       0       0       1       0                               0D0000222
     508     130       0       0       0       0       0       000010000D0000223
     508       0       0       1       1                               0D0000224
     510     131       0       0       0       0       0       000010000D0000225
     510       0       0       1       1                               0D0000226
     190     132       0       0       0       0       0       000010000D0000227
     190       0       0       1       1                               0D0000228
     116     133       0       0       0       0       0       000010400D0000229
     116       0       0       1       0                               0D0000230
     123     134       0       0       0       0       0       000010200D0000231
     123       0       0       1       0                               0D0000232
     123     135       0       0       0       0       0       000010200D0000233
     123       0       0       1       0                               0D0000234
     508     136       0       0       0       0       0       000010000D0000235
     508       0       0       1       1                               0D0000236
     510     137       0       0       0       0       0       000010000D0000237
     510       0       0       1       1                               0D0000238
     190     138       0       0       0       0       0       000010000D0000239
     190       0       0       1       1                               0D0000240
     116     139       0       0       0       0       0       000010400D0000241
     116       0       0       1       0                               0D0000242
     123     140       0       0       0       0       0       000010200D0000243
     123       0       0       1       0                               0D0000244
     123     141       0       0       0       0       0       000010200D0000245
     123       0       0       1       0                               0D0000246
     508     142       0       0       0       0       0       000010000D0000247
     508       0       0       1       1                               0D0000248
     508     143       0       0       0       0       0       000010000D0000249
     508       0       0       1       1                               0D0000250
     510     144       0       0       0       0       0       000010000D0000251
     510       0       0       1       1                               0D0000252
     192     145       0       0       0       0       0       000010000D0000253
     192       0       0       1       1                               0D0000254
     116     146       0       0       0       0       0       000010400D0000255
     116       0       0       1       0                               0D0000256
     123     147       0       0       0       0       0       000010200D0000257
     123       0       0       1       0                               0D0000258
     123     148       0       0       0       0       0       000010200D0000259
     123       0       0       1       0                               0D0000260
     508     149       0       0       0       0       0       000010000D0000261
     508       0       0       2       1                               0D0000262
     110     151       0       0       0       0       0       000010000D0000263
     110       0       0       1       0                               0D0000264
     110     152       0       0       0       0       0       000010000D0000265
     110       0       0       1       0                               0D0000266
     110     153       0       0       0       0       0       000010000D0000267
     110       0       0       1       0                               0D0000268
     110     154       0       0       0       0       0       000010000D0000269
     110       0       0       1       0                               0D0000270
     510     155       0       0       0       0       0       000010000D0000271
     510       0       0       1       1                               0D0000272
     190     156       0       0       0       0       0       000010000D0000273
     190       0       0       1       1                               0D0000274
     116     157       0       0       0       0       0       000010400D0000275
     116       0       0       1       0                               0D0000276
     123     158       0       0       0       0       0       000010200D0000277
     123       0       0       1       0                               0D0000278
     123     159       0       0       0       0       0       000010200D0000279
     123       0       0       1       0                               0D0000280
     508     160       0       0       0       0       0       000010000D0000281
     508       0       0       1       1                               0D0000282
402,1,3;                                                         0000001P0000001
186,5,1,0;                                                       0000003P0000002
514,14,7,1,87,1,99,1,111,0,127,1,139,1,153,1,173,1,193,1,213,0,  0000005P0000003
225,0,237,0,251,0,271,1;                                         0000005P0000004
510,9,1,1,17;                                                    0000007P0000005
190,11,13,15;                                                    0000009P0000006
116,-2.9972,14.478,0.,0;                                         0000011P0000007
123,0.,1.,0.;                                                    0000013P0000008
123,1.,0.,0.;                                                    0000015P0000009
508,4,0,19,1,1,0,0,19,2,1,0,0,19,3,0,0,0,19,4,0,0;               0000017P0000010
504,24,21,23,1,23,2,25,23,2,23,3,27,23,4,23,3,29,23,1,23,4,31,   0000019P0000011
23,5,23,6,33,23,6,23,2,35,23,5,23,1,37,23,3,23,7,39,23,8,23,7,   0000019P0000012
41,23,4,23,8,43,23,8,23,5,45,23,9,23,9,49,23,10,23,10,53,23,7,   0000019P0000013
23,6,55,23,11,23,11,59,23,9,23,12,61,23,12,23,12,65,23,10,23,13, 0000019P0000014
67,23,13,23,13,71,23,11,23,14,73,23,14,23,14,77,23,15,23,15,81,  0000019P0000015
23,16,23,15,83,23,16,23,16;                                      0000019P0000016
110,-2.9972,14.478,0.,-2.9972,14.478,5.08;                       0000021P0000017
502,16,-2.9972,14.478,0.,-2.9972,14.478,5.08,2.9972,14.478,5.08, 0000023P0000018
2.9972,14.478,0.,-2.9972,0.,0.,-2.9972,0.,5.08,2.9972,0.,5.08,   0000023P0000019
2.9972,0.,0.,0.7493,3.5052,0.,0.7493,10.5156,0.,2.5019,          0000023P0000020
5.639932965E-16,2.54,0.7493,3.5052,-1.016,0.7493,10.5156,-1.016, 0000023P0000021
2.5019,-2.4892,2.54,1.7399,-2.4892,2.54,1.7399,5.639932965E-16,  0000023P0000022
2.54;                                                            0000023P0000023
110,-2.9972,14.478,5.08,2.9972,14.478,5.08;                      0000025P0000024
110,2.9972,14.478,0.,2.9972,14.478,5.08;                         0000027P0000025
110,-2.9972,14.478,0.,2.9972,14.478,0.;                          0000029P0000026
110,-2.9972,0.,0.,-2.9972,0.,5.08;                               0000031P0000027
110,-2.9972,0.,5.08,-2.9972,14.478,5.08;                         0000033P0000028
110,-2.9972,0.,0.,-2.9972,14.478,0.;                             0000035P0000029
110,2.9972,14.478,5.08,2.9972,0.,5.08;                           0000037P0000030
110,2.9972,0.,0.,2.9972,0.,5.08;                                 0000039P0000031
110,2.9972,14.478,0.,2.9972,0.,0.;                               0000041P0000032
110,2.9972,0.,0.,-2.9972,0.,0.;                                  0000043P0000033
100,0.,0.,0.,0.7493,0.,0.7493,0.;                                0000045P0000034
124,1.,0.,0.,0.,0.,-1.,0.,3.5052,0.,0.,-1.,0.;                   0000047P0000035
100,0.,0.,0.,0.7493,0.,0.7493,0.;                                0000049P0000036
124,1.,0.,0.,0.,0.,-1.,0.,10.5156,0.,0.,-1.,0.;                  0000051P0000037
110,2.9972,0.,5.08,-2.9972,0.,5.08;                              0000053P0000038
100,0.,0.,0.,2.5019,0.,2.5019,0.;                                0000055P0000039
124,1.,0.,0.,0.,0.,2.220446049E-16,-1.,5.639932965E-16,0.,1.,    0000057P0000040
2.220446049E-16,2.54;                                            0000057P0000041
110,0.7493,3.5052,0.,0.7493,3.5052,-1.016;                       0000059P0000042
100,0.,0.,0.,0.7493,0.,0.7493,0.;                                0000061P0000043
124,1.,0.,0.,0.,0.,-1.,0.,3.5052,0.,0.,-1.,-1.016;               0000063P0000044
110,0.7493,10.5156,0.,0.7493,10.5156,-1.016;                     0000065P0000045
100,0.,0.,0.,0.7493,0.,0.7493,0.;                                0000067P0000046
124,1.,0.,0.,0.,0.,-1.,0.,10.5156,0.,0.,-1.,-1.016;              0000069P0000047
110,2.5019,5.639932965E-16,2.54,2.5019,-2.4892,2.54;             0000071P0000048
100,0.,0.,0.,2.5019,0.,2.5019,0.;                                0000073P0000049
124,1.,0.,0.,0.,0.,2.220446049E-16,-1.,-2.4892,0.,1.,            0000075P0000050
2.220446049E-16,2.54;                                            0000075P0000051
100,0.,0.,0.,1.7399,0.,1.7399,0.;                                0000077P0000052
124,1.,0.,0.,0.,0.,2.220446049E-16,-1.,-2.4892,0.,1.,            0000079P0000053
2.220446049E-16,2.54;                                            0000079P0000054
110,1.7399,5.639932965E-16,2.54,1.7399,-2.4892,2.54;             0000081P0000055
100,0.,0.,0.,1.7399,0.,1.7399,0.;                                0000083P0000056
124,1.,0.,0.,0.,0.,2.220446049E-16,-1.,5.639932965E-16,0.,1.,    0000085P0000057
2.220446049E-16,2.54;                                            0000085P0000058
510,89,1,1,97;                                                   0000087P0000059
190,91,93,95;                                                    0000089P0000060
116,-2.9972,0.,0.,0;                                             0000091P0000061
123,-1.,0.,0.;                                                   0000093P0000062
123,0.,1.,0.;                                                    0000095P0000063
508,4,0,19,5,1,0,0,19,6,1,0,0,19,1,0,0,0,19,7,0,0;               0000097P0000064
510,101,1,1,109;                                                 0000099P0000065
190,103,105,107;                                                 0000101P0000066
116,2.9972,14.478,0.,0;                                          0000103P0000067
123,1.,0.,0.;                                                    0000105P0000068
123,0.,-1.,0.;                                                   0000107P0000069
508,4,0,19,3,1,0,0,19,8,1,0,0,19,9,0,0,0,19,10,0,0;              0000109P0000070
510,113,3,1,121,123,125;                                         0000111P0000071
190,115,117,119;                                                 0000113P0000072
116,0.,7.239,0.,0;                                               0000115P0000073
123,0.,0.,1.;                                                    0000117P0000074
123,1.,0.,0.;                                                    0000119P0000075
508,4,0,19,4,0,0,0,19,7,0,0,0,19,11,0,0,0,19,10,0,0;             0000121P0000076
508,1,0,19,12,1,0;                                               0000123P0000077
508,1,0,19,13,1,0;                                               0000125P0000078
510,129,1,1,137;                                                 0000127P0000079
190,131,133,135;                                                 0000129P0000080
116,0.,7.239,5.08,0;                                             0000131P0000081
123,0.,0.,1.;                                                    0000133P0000082
123,1.,0.,0.;                                                    0000135P0000083
508,4,0,19,2,0,0,0,19,6,0,0,0,19,14,0,0,0,19,8,0,0;              0000137P0000084
510,141,2,1,149,151;                                             0000139P0000085
190,143,145,147;                                                 0000141P0000086
116,2.9972,0.,0.,0;                                              0000143P0000087
123,0.,-1.,0.;                                                   0000145P0000088
123,-1.,0.,0.;                                                   0000147P0000089
508,4,0,19,9,1,0,0,19,14,1,0,0,19,5,0,0,0,19,11,0,0;             0000149P0000090
508,1,0,19,15,0,0;                                               0000151P0000091
510,155,1,1,163;                                                 0000153P0000092
192,157,159,0.7493,161;                                          0000155P0000093
116,0.,3.5052,0.,0;                                              0000157P0000094
123,0.,0.,1.;                                                    0000159P0000095
123,1.,0.,0.;                                                    0000161P0000096
508,4,0,19,16,0,1,0,165,0,19,12,1,1,0,167,0,19,16,1,1,0,169,0,   0000163P0000097
19,17,0,1,0,171;                                                 0000163P0000098
110,0.,-1.016,0.,0.,0.,0.;                                       0000165P0000099
110,0.,0.,0.,-360.,0.,0.;                                        0000167P0000100
110,-360.,0.,0.,-360.,-1.016,0.;                                 0000169P0000101
110,-360.,-1.016,0.,0.,-1.016,0.;                                0000171P0000102
510,175,1,1,183;                                                 0000173P0000103
192,177,179,0.7493,181;                                          0000175P0000104
116,0.,10.5156,0.,0;                                             0000177P0000105
123,0.,0.,1.;                                                    0000179P0000106
123,1.,0.,0.;                                                    0000181P0000107
508,4,0,19,18,0,1,0,185,0,19,13,1,1,0,187,0,19,18,1,1,0,189,0,   0000183P0000108
19,19,0,1,0,191;                                                 0000183P0000109
110,0.,-1.016,0.,0.,0.,0.;                                       0000185P0000110
110,0.,0.,0.,-360.,0.,0.;                                        0000187P0000111
110,-360.,0.,0.,-360.,-1.016,0.;                                 0000189P0000112
110,-360.,-1.016,0.,0.,-1.016,0.;                                0000191P0000113
510,195,1,1,203;                                                 0000193P0000114
192,197,199,2.5019,201;                                          0000195P0000115
116,0.,5.639932965E-16,2.54,0;                                   0000197P0000116
123,0.,1.,-2.220446049E-16;                                      0000199P0000117
123,1.,0.,0.;                                                    0000201P0000118
508,4,0,19,20,0,1,0,205,0,19,15,1,1,0,207,0,19,20,1,1,0,209,0,   0000203P0000119
19,21,0,1,0,211;                                                 0000203P0000120
110,0.,-2.4892,0.,0.,0.,0.;                                      0000205P0000121
110,0.,0.,0.,-360.,0.,0.;                                        0000207P0000122
110,-360.,0.,0.,-360.,-2.4892,0.;                                0000209P0000123
110,-360.,-2.4892,0.,0.,-2.4892,0.;                              0000211P0000124
510,215,1,1,223;                                                 0000213P0000125
190,217,219,221;                                                 0000215P0000126
116,4.277242507E-17,7.0104,-1.016,0;                             0000217P0000127
123,0.,0.,1.;                                                    0000219P0000128
123,1.,0.,0.;                                                    0000221P0000129
508,1,0,19,17,0,0;                                               0000223P0000130
510,227,1,1,235;                                                 0000225P0000131
190,229,231,233;                                                 0000227P0000132
116,4.277242507E-17,7.0104,-1.016,0;                             0000229P0000133
123,0.,0.,1.;                                                    0000231P0000134
123,1.,0.,0.;                                                    0000233P0000135
508,1,0,19,19,0,0;                                               0000235P0000136
510,239,2,1,247,249;                                             0000237P0000137
190,241,243,245;                                                 0000239P0000138
116,-1.208897283E-16,-2.4892,2.54,0;                             0000241P0000139
123,-3.740718921E-49,1.,-2.220446049E-16;                        0000243P0000140
123,0.,2.220446049E-16,1.;                                       0000245P0000141
508,1,0,19,21,0,0;                                               0000247P0000142
508,1,0,19,22,1,0;                                               0000249P0000143
510,253,1,1,261;                                                 0000251P0000144
192,255,257,1.7399,259;                                          0000253P0000145
116,0.,5.639932965E-16,2.54,0;                                   0000255P0000146
123,0.,1.,-2.220446049E-16;                                      0000257P0000147
123,1.,0.,0.;                                                    0000259P0000148
508,4,0,19,23,0,1,0,263,0,19,24,1,1,0,265,0,19,23,1,1,0,267,0,   0000261P0000149
19,22,0,1,0,269;                                                 0000261P0000150
110,0.,-2.4892,0.,0.,0.,0.;                                      0000263P0000151
110,0.,0.,0.,-360.,0.,0.;                                        0000265P0000152
110,-360.,0.,0.,-360.,-2.4892,0.;                                0000267P0000153
110,-360.,-2.4892,0.,0.,-2.4892,0.;                              0000269P0000154
510,273,1,1,281;                                                 0000271P0000155
190,275,277,279;                                                 0000273P0000156
116,2.9972,0.,0.,0;                                              0000275P0000157
123,0.,-1.,0.;                                                   0000277P0000158
123,-1.,0.,0.;                                                   0000279P0000159
508,1,0,19,24,1,0;                                               0000281P0000160
S      1G      4D    282P    160                                        T0000001
