                                                                        S0000001
,,31HOpen CASCADE IGES processor 7.6,13HFilename.iges,                  G0000001
16HOpen CASCADE 7.6,31HOpen CASCADE IGES processor 7.6,32,308,15,308,15,G0000002
,1.,2,2HMM,1,0.01,15H20231122.170639,1E-07,9.525,,,11,0,                G0000003
15H20231122.170639,;                                                    G0000004
     402       1       0       0       0       0       0       000000000D0000001
     402       0       0       1       1                               0D0000002
     186       2       0       0       0       0       0       000020000D0000003
     186       0       0       1       0                               0D0000004
     514       3       0       0       0       0       0       000010000D0000005
     514       0       0       1       1                               0D0000006
     510       4       0       0       0       0       0       000010000D0000007
     510       0       0       1       1                               0D0000008
     190       5       0       0       0       0       0       000010000D0000009
     190       0       0       1       1                               0D0000010
     116       6       0       0       0       0       0       000010400D0000011
     116       0       0       1       0                               0D0000012
     123       7       0       0       0       0       0       000010200D0000013
     123       0       0       1       0                               0D0000014
     123       8       0       0       0       0       0       000010200D0000015
     123       0       0       1       0                               0D0000016
     508       9       0       0       0       0       0       000010000D0000017
     508       0       0       1       1                               0D0000018
     504      10       0       0       0       0       0       000010001D0000019
     504       0       0       2       1                               0D0000020
     100      12       0       0       0       0      23       000010000D0000021
     100       0       0       1       0                               0D0000022
     124      13       0       0       0       0       0       000000000D0000023
     124       0       0       1       0                               0D0000024
     502      14       0       0       0       0       0       000010000D0000025
     502       0       0       1       1                               0D0000026
     110      15       0       0       0       0       0       000010000D0000027
     110       0       0       1       0                               0D0000028
     100      16       0       0       0       0      31       000010000D0000029
     100       0       0       1       0                               0D0000030
     124      17       0       0       0       0       0       000000000D0000031
     124       0       0       1       0                               0D0000032
     100      18       0       0       0       0      35       000010000D0000033
     100       0       0       1       0                               0D0000034
     124      19       0       0       0       0       0       000000000D0000035
     124       0       0       1       0                               0D0000036
     110      20       0       0       0       0       0       000010000D0000037
     110       0       0       1       0                               0D0000038
     100      21       0       0       0       0      41       000010000D0000039
     100       0       0       1       0                               0D0000040
     124      22       0       0       0       0       0       000000000D0000041
     124       0       0       1       0                               0D0000042
     510      23       0       0       0       0       0       000010000D0000043
     510       0       0       1       1                               0D0000044
     192      24       0       0       0       0       0       000010000D0000045
     192       0       0       1       1                               0D0000046
     116      25       0       0       0       0       0       000010400D0000047
     116       0       0       1       0                               0D0000048
     123      26       0       0       0       0       0       000010200D0000049
     123       0       0       1       0                               0D0000050
     123      27       0       0       0       0       0       000010200D0000051
     123       0       0       1       0                               0D0000052
     508      28       0       0       0       0       0       000010000D0000053
     508       0       0       2       1                               0D0000054
     110      30       0       0       0       0       0       000010000D0000055
     110       0       0       1       0                               0D0000056
     110      31       0       0       0       0       0       000010000D0000057
     110       0       0       1       0                               0D0000058
     110      32       0       0       0       0       0       000010000D0000059
     110       0       0       1       0                               0D0000060
     110      33       0       0       0       0       0       000010000D0000061
     110       0       0       1       0                               0D0000062
     510      34       0       0       0       0       0       000010000D0000063
     510       0       0       1       1                               0D0000064
     190      35       0       0       0       0       0       000010000D0000065
     190       0       0       1       1                               0D0000066
     116      36       0       0       0       0       0       000010400D0000067
     116       0       0       1       0                               0D0000068
     123      37       0       0       0       0       0       000010200D0000069
     123       0       0       1       0                               0D0000070
     123      38       0       0       0       0       0       000010200D0000071
     123       0       0       1       0                               0D0000072
     508      39       0       0       0       0       0       000010000D0000073
     508       0       0       1       1                               0D0000074
     508      40       0       0       0       0       0       000010000D0000075
     508       0       0       1       1                               0D0000076
     510      41       0       0       0       0       0       000010000D0000077
     510       0       0       1       1                               0D0000078
     192      42       0       0       0       0       0       000010000D0000079
     192       0       0       1       1                               0D0000080
     116      43       0       0       0       0       0       000010400D0000081
     116       0       0       1       0                               0D0000082
     123      44       0       0       0       0       0       000010200D0000083
     123       0       0       1       0                               0D0000084
     123      45       0       0       0       0       0       000010200D0000085
     123       0       0       1       0                               0D0000086
     508      46       0       0       0       0       0       000010000D0000087
     508       0       0       2       1                               0D0000088
     110      48       0       0       0       0       0       000010000D0000089
     110       0       0       1       0                               0D0000090
     110      49       0       0       0       0       0       000010000D0000091
     110       0       0       1       0                               0D0000092
     110      50       0       0       0       0       0       000010000D0000093
     110       0       0       1       0                               0D0000094
     110      51       0       0       0       0       0       000010000D0000095
     110       0       0       1       0                               0D0000096
     510      52       0       0       0       0       0       000010000D0000097
     510       0       0       1       1                               0D0000098
     190      53       0       0       0       0       0       000010000D0000099
     190       0       0       1       1                               0D0000100
     116      54       0       0       0       0       0       000010400D0000101
     116       0       0       1       0                               0D0000102
     123      55       0       0       0       0       0       000010200D0000103
     123       0       0       1       0                               0D0000104
     123      56       0       0       0       0       0       000010200D0000105
     123       0       0       1       0                               0D0000106
     508      57       0       0       0       0       0       000010000D0000107
     508       0       0       1       1                               0D0000108
402,1,3;                                                         0000001P0000001
186,5,1,0;                                                       0000003P0000002
514,5,7,1,43,1,63,1,77,1,97,0;                                   0000005P0000003
510,9,1,1,17;                                                    0000007P0000004
190,11,13,15;                                                    0000009P0000005
116,0.,-2.11E-15,-9.525,0;                                       0000011P0000006
123,0.,-2.2E-16,-1.;                                             0000013P0000007
123,1.,0.,0.;                                                    0000015P0000008
508,1,0,19,1,1,0;                                                0000017P0000009
504,6,21,25,1,25,1,27,25,1,25,2,29,25,2,25,2,33,25,3,25,3,37,25, 0000019P0000010
3,25,4,39,25,4,25,4;                                             0000019P0000011
100,0.,0.,0.,1.4224,0.,1.4224,0.;                                0000021P0000012
124,1.,0.,0.,0.,0.,-1.,-2.2E-16,-2.11E-15,0.,2.2E-16,-1.,-9.525; 0000023P0000013
502,4,1.4224,0.,-9.525,1.4224,0.,0.,2.794,0.,0.,2.794,0.,2.1082; 0000025P0000014
110,1.4224,2.11E-15,-9.525,1.4224,1.45E-17,0.;                   0000027P0000015
100,0.,0.,0.,1.4224,0.,1.4224,0.;                                0000029P0000016
124,1.,0.,0.,0.,0.,-1.,-2.2E-16,0.,0.,2.2E-16,-1.,0.;            0000031P0000017
100,0.,0.,0.,2.794,0.,2.794,0.;                                  0000033P0000018
124,1.,0.,0.,0.,0.,-1.,-2.2E-16,0.,0.,2.2E-16,-1.,0.;            0000035P0000019
110,2.794,0.,0.,2.794,-4.63804E-16,2.1082;                       0000037P0000020
100,0.,0.,0.,2.794,0.,2.794,0.;                                  0000039P0000021
124,1.,0.,0.,0.,0.,-1.,-2.2E-16,4.7E-16,0.,2.2E-16,-1.,2.1082;   0000041P0000022
510,45,1,1,53;                                                   0000043P0000023
192,47,49,1.4224,51;                                             0000045P0000024
116,0.,-2.11E-15,-9.525,0;                                       0000047P0000025
123,0.,2.2E-16,1.;                                               0000049P0000026
123,1.,0.,0.;                                                    0000051P0000027
508,4,0,19,1,0,1,0,55,0,19,2,1,1,0,57,0,19,3,1,1,0,59,0,19,2,0,  0000053P0000028
1,0,61;                                                          0000053P0000029
110,-360.,0.,0.,0.,0.,0.;                                        0000055P0000030
110,0.,0.,0.,0.,9.525,0.;                                        0000057P0000031
110,0.,9.525,0.,-360.,9.525,0.;                                  0000059P0000032
110,-360.,9.525,0.,-360.,0.,0.;                                  0000061P0000033
510,65,2,1,73,75;                                                0000063P0000034
190,67,69,71;                                                    0000065P0000035
116,0.,0.,0.,0;                                                  0000067P0000036
123,0.,-2.2E-16,-1.;                                             0000069P0000037
123,1.,0.,0.;                                                    0000071P0000038
508,1,0,19,4,1,0;                                                0000073P0000039
508,1,0,19,3,0,0;                                                0000075P0000040
510,79,1,1,87;                                                   0000077P0000041
192,81,83,2.794,85;                                              0000079P0000042
116,0.,0.,0.,0;                                                  0000081P0000043
123,0.,2.2E-16,1.;                                               0000083P0000044
123,1.,0.,0.;                                                    0000085P0000045
508,4,0,19,4,0,1,0,89,0,19,5,1,1,0,91,0,19,6,1,1,0,93,0,19,5,0,  0000087P0000046
1,0,95;                                                          0000087P0000047
110,-360.,0.,0.,0.,0.,0.;                                        0000089P0000048
110,0.,0.,0.,0.,2.1082,0.;                                       0000091P0000049
110,0.,2.1082,0.,-360.,2.1082,0.;                                0000093P0000050
110,-360.,2.1082,0.,-360.,0.,0.;                                 0000095P0000051
510,99,1,1,107;                                                  0000097P0000052
190,101,103,105;                                                 0000099P0000053
116,0.,4.7E-16,2.1082,0;                                         0000101P0000054
123,0.,-2.2E-16,-1.;                                             0000103P0000055
123,1.,0.,0.;                                                    0000105P0000056
508,1,0,19,6,1,0;                                                0000107P0000057
S      1G      4D    108P     57                                        T0000001
