G04 start of page 10 for group -4015 idx -4015 *
G04 Title: (unknown), toppaste *
G04 Creator: pcb 4.2.2 *
G04 CreationDate: Mon Nov  6 18:02:03 2023 UTC *
G04 For: thomasc *
G04 Format: Gerber/RS-274X *
G04 PCB-Dimensions (mil): 1125.00 1500.00 *
G04 PCB-Coordinate-Origin: lower left *
%MOIN*%
%FSLAX25Y25*%
%LNTOPPASTE*%
%ADD47C,0.0001*%
G54D47*G36*
X30000Y10000D02*Y5000D01*
X45000D01*
Y10000D01*
X30000D01*
G37*
G36*
Y47500D02*Y42500D01*
X45000D01*
Y47500D01*
X30000D01*
G37*
G36*
X20000Y67500D02*X15000D01*
Y52500D01*
X20000D01*
Y67500D01*
G37*
G36*
X80500Y72500D02*Y67500D01*
X88500D01*
Y72500D01*
X80500D01*
G37*
G36*
X92500D02*Y67500D01*
X100500D01*
Y72500D01*
X92500D01*
G37*
G36*
X93000Y89000D02*Y87000D01*
X101000D01*
Y89000D01*
X93000D01*
G37*
G36*
Y97000D02*Y95000D01*
X101000D01*
Y97000D01*
X93000D01*
G37*
G36*
X81000Y93000D02*Y91000D01*
X89000D01*
Y93000D01*
X81000D01*
G37*
G36*
X52500Y79500D02*Y74500D01*
X60500D01*
Y79500D01*
X52500D01*
G37*
G36*
X64500D02*Y74500D01*
X72500D01*
Y79500D01*
X64500D01*
G37*
G36*
X65000Y93000D02*Y91000D01*
X73000D01*
Y93000D01*
X65000D01*
G37*
G36*
Y101000D02*Y99000D01*
X73000D01*
Y101000D01*
X65000D01*
G37*
G36*
X53000Y97000D02*Y95000D01*
X61000D01*
Y97000D01*
X53000D01*
G37*
M02*
