G04 start of page 6 for group -4063 idx -4063 *
G04 Title: (unknown), componentmask *
G04 Creator: pcb 4.2.2 *
G04 CreationDate: Mon Nov  6 18:02:03 2023 UTC *
G04 For: thomasc *
G04 Format: Gerber/RS-274X *
G04 PCB-Dimensions (mil): 1125.00 1500.00 *
G04 PCB-Coordinate-Origin: lower left *
%MOIN*%
%FSLAX25Y25*%
%LNTOPMASK*%
%ADD38C,0.1310*%
%ADD37C,0.0760*%
%ADD36C,0.0840*%
%ADD35C,0.0001*%
%ADD34C,0.0860*%
G54D34*X57500Y127500D03*
X72500D03*
G54D35*G36*
X83200Y131800D02*Y123200D01*
X91800D01*
Y131800D01*
X83200D01*
G37*
G54D34*X42500Y127500D03*
X27500D03*
G54D36*X20000Y12500D03*
Y40000D03*
G54D37*X82500Y47500D03*
G54D38*X97500Y16500D03*
X67500D03*
G54D35*G36*
X20600Y68100D02*X14400D01*
Y51900D01*
X20600D01*
Y68100D01*
G37*
G36*
X29400Y10600D02*Y4400D01*
X45600D01*
Y10600D01*
X29400D01*
G37*
G36*
Y48100D02*Y41900D01*
X45600D01*
Y48100D01*
X29400D01*
G37*
G36*
X79500Y73500D02*Y66500D01*
X89500D01*
Y73500D01*
X79500D01*
G37*
G36*
X91500D02*Y66500D01*
X101500D01*
Y73500D01*
X91500D01*
G37*
G36*
X92000Y90000D02*Y86000D01*
X102000D01*
Y90000D01*
X92000D01*
G37*
G36*
Y98000D02*Y94000D01*
X102000D01*
Y98000D01*
X92000D01*
G37*
G36*
X80000Y94000D02*Y90000D01*
X90000D01*
Y94000D01*
X80000D01*
G37*
G36*
X51500Y80500D02*Y73500D01*
X61500D01*
Y80500D01*
X51500D01*
G37*
G36*
X63500D02*Y73500D01*
X73500D01*
Y80500D01*
X63500D01*
G37*
G36*
X64000Y94000D02*Y90000D01*
X74000D01*
Y94000D01*
X64000D01*
G37*
G36*
Y102000D02*Y98000D01*
X74000D01*
Y102000D01*
X64000D01*
G37*
G36*
X52000Y98000D02*Y94000D01*
X62000D01*
Y98000D01*
X52000D01*
G37*
M02*
