G04 start of page 9 for group -4078 idx -4078 *
G04 Title: (unknown), bottomsilk *
G04 Creator: pcb 4.2.2 *
G04 CreationDate: Mon Nov  6 18:02:03 2023 UTC *
G04 For: thomasc *
G04 Format: Gerber/RS-274X *
G04 PCB-Dimensions (mil): 1125.00 1500.00 *
G04 PCB-Coordinate-Origin: lower left *
%MOIN*%
%FSLAX25Y25*%
%LNBOTTOMSILK*%
%ADD46C,0.0100*%
G54D46*X56000Y116000D02*X62000D01*
X55000Y117000D02*X56000Y116000D01*
X55000Y115000D01*
Y113000D02*Y115000D01*
Y113000D02*X56000Y112000D01*
X58000D01*
X59000Y113000D02*X58000Y112000D01*
X59000Y113000D02*Y115000D01*
X58000Y116000D02*X59000Y115000D01*
X55000Y109600D02*X58000D01*
X59000Y108600D01*
Y106600D02*Y108600D01*
Y106600D02*X58000Y105600D01*
X55000D02*X58000D01*
X51000Y103200D02*X58000D01*
X59000Y102200D01*
Y96200D02*Y99200D01*
Y96200D02*X58000Y95200D01*
X57000Y96200D02*X58000Y95200D01*
X57000Y96200D02*Y99200D01*
X56000Y100200D02*X57000Y99200D01*
X56000Y100200D02*X55000Y99200D01*
Y96200D02*Y99200D01*
Y96200D02*X56000Y95200D01*
X58000Y100200D02*X59000Y99200D01*
Y88800D02*Y91800D01*
X58000Y92800D02*X59000Y91800D01*
X56000Y92800D02*X58000D01*
X56000D02*X55000Y91800D01*
Y89800D02*Y91800D01*
Y89800D02*X56000Y88800D01*
X57000D02*Y92800D01*
X56000Y88800D02*X57000D01*
X87000Y114000D02*X88000Y113000D01*
X87000Y114000D02*Y116000D01*
X88000Y117000D02*X87000Y116000D01*
X88000Y117000D02*X90000D01*
X91000Y116000D01*
Y114000D02*Y116000D01*
Y114000D02*X90000Y113000D01*
X93000Y117000D02*X94000Y116000D01*
Y114000D02*Y116000D01*
Y114000D02*X93000Y113000D01*
X87000D02*X93000D01*
X88000Y109600D02*X91000D01*
X88000D02*X87000Y108600D01*
Y107600D02*Y108600D01*
Y107600D02*X88000Y106600D01*
X91000D01*
X87000Y110600D02*X88000Y109600D01*
X83000Y100200D02*X91000D01*
Y101200D02*X90000Y100200D01*
X91000Y101200D02*Y103200D01*
X90000Y104200D02*X91000Y103200D01*
X88000Y104200D02*X90000D01*
X88000D02*X87000Y103200D01*
Y101200D02*Y103200D01*
Y101200D02*X88000Y100200D01*
X71000Y114000D02*X72000Y113000D01*
X71000Y114000D02*Y116000D01*
X72000Y117000D02*X71000Y116000D01*
X72000Y117000D02*X74000D01*
X75000Y116000D01*
Y114000D02*Y116000D01*
Y114000D02*X74000Y113000D01*
X77000Y117000D02*X78000Y116000D01*
Y114000D02*Y116000D01*
Y114000D02*X77000Y113000D01*
X71000D02*X77000D01*
X72000Y109600D02*X75000D01*
X72000D02*X71000Y108600D01*
Y107600D02*Y108600D01*
Y107600D02*X72000Y106600D01*
X75000D01*
X71000Y110600D02*X72000Y109600D01*
X67000Y100200D02*X75000D01*
Y101200D02*X74000Y100200D01*
X75000Y101200D02*Y103200D01*
X74000Y104200D02*X75000Y103200D01*
X72000Y104200D02*X74000D01*
X72000D02*X71000Y103200D01*
Y101200D02*Y103200D01*
Y101200D02*X72000Y100200D01*
X40000Y116000D02*X43000D01*
X40000D02*X39000Y115000D01*
Y114000D02*Y115000D01*
Y114000D02*X40000Y113000D01*
X43000D01*
X39000Y117000D02*X40000Y116000D01*
X39000Y106600D02*Y109600D01*
X40000Y110600D02*X39000Y109600D01*
X40000Y110600D02*X42000D01*
X43000Y109600D01*
Y106600D02*Y109600D01*
X15000Y126000D02*Y130000D01*
X13000Y128000D02*X17000D01*
X12600Y123600D02*X11000Y122000D01*
X19000D01*
Y120600D02*Y123600D01*
X11000Y114200D02*Y118200D01*
X15000D01*
X14000Y117200D01*
Y115200D02*Y117200D01*
Y115200D02*X15000Y114200D01*
X18000D01*
X19000Y115200D02*X18000Y114200D01*
X19000Y115200D02*Y117200D01*
X18000Y118200D02*X19000Y117200D01*
X11000Y111800D02*X19000Y109800D01*
X11000Y107800D01*
M02*
