G04 start of page 8 for group -4079 idx -4079 *
G04 Title: (unknown), topsilk *
G04 Creator: pcb 4.2.2 *
G04 CreationDate: Mon Nov  6 18:02:03 2023 UTC *
G04 For: thomasc *
G04 Format: Gerber/RS-274X *
G04 PCB-Dimensions (mil): 1125.00 1500.00 *
G04 PCB-Coordinate-Origin: lower left *
%MOIN*%
%FSLAX25Y25*%
%LNTOPSILK*%
%ADD45C,0.0150*%
%ADD44C,0.0100*%
G54D44*X17500Y145000D02*Y110000D01*
X97500D01*
Y145000D01*
X17500D01*
X5000Y70000D02*Y5000D01*
Y70000D02*X47500D01*
Y5000D01*
X107500Y55500D02*Y5500D01*
X57500Y55500D02*X107500D01*
X57500D02*Y5500D01*
X78000Y75000D02*X103000D01*
Y65000D01*
X78000D01*
Y75000D01*
G54D45*X79000Y103000D02*Y81000D01*
X103000D01*
Y103000D02*Y81000D01*
X79000Y103000D02*X103000D01*
G54D44*X98000Y81000D02*X103000Y86000D01*
X50000Y82000D02*X75000D01*
Y72000D01*
X50000D02*X75000D01*
X50000Y82000D02*Y72000D01*
G54D45*X51000Y107000D02*Y85000D01*
X75000D01*
Y107000D02*Y85000D01*
X51000Y107000D02*X75000D01*
G54D44*X70000Y85000D02*X75000Y90000D01*
M02*
