G04 start of page 2 for group 0 idx 0 *
G04 Title: (unknown), top *
G04 Creator: pcb 4.2.2 *
G04 CreationDate: Mon Nov  6 18:02:03 2023 UTC *
G04 For: thomasc *
G04 Format: Gerber/RS-274X *
G04 PCB-Dimensions (mil): 1125.00 1500.00 *
G04 PCB-Coordinate-Origin: lower left *
%MOIN*%
%FSLAX25Y25*%
%LNTOP*%
%ADD19C,0.0420*%
%ADD18C,0.0520*%
%ADD17C,0.1520*%
%ADD16C,0.1250*%
%ADD15C,0.0700*%
%ADD14C,0.0780*%
%ADD13C,0.0001*%
%ADD12C,0.0800*%
%ADD11C,0.0150*%
G54D11*X85000Y92000D02*X69000D01*
Y100000D02*X86000D01*
X90000Y96000D01*
X82500Y47500D02*Y69500D01*
X97000Y88000D02*Y70500D01*
X56500Y77000D02*X51000D01*
X37500Y45000D02*X50000D01*
X69000Y64000D01*
Y92000D02*Y64000D01*
X51000Y77000D02*X44000Y84000D01*
Y111000D01*
X37500Y7500D02*X58500D01*
X67500Y16500D01*
X97500D01*
X57500Y127500D02*X48000Y118000D01*
Y100000D01*
X44000Y111000D02*X27500Y127500D01*
X48000Y100000D02*X52000Y96000D01*
X55000D01*
X87500Y127500D02*X72500D01*
Y114500D01*
X81000Y106000D01*
Y100000D01*
X90000Y96000D02*X97000D01*
G54D12*X57500Y127500D03*
X72500D03*
G54D13*G36*
X83500Y131500D02*Y123500D01*
X91500D01*
Y131500D01*
X83500D01*
G37*
G54D12*X42500Y127500D03*
X27500D03*
G54D14*X20000Y12500D03*
Y40000D03*
G54D15*X82500Y47500D03*
G54D16*X97500Y16500D03*
X67500D03*
G54D13*G36*
X20000Y67500D02*X15000D01*
Y52500D01*
X20000D01*
Y67500D01*
G37*
G36*
X30000Y10000D02*Y5000D01*
X45000D01*
Y10000D01*
X30000D01*
G37*
G36*
Y47500D02*Y42500D01*
X45000D01*
Y47500D01*
X30000D01*
G37*
G36*
X80500Y72500D02*Y67500D01*
X88500D01*
Y72500D01*
X80500D01*
G37*
G36*
X92500D02*Y67500D01*
X100500D01*
Y72500D01*
X92500D01*
G37*
G36*
X93000Y89000D02*Y87000D01*
X101000D01*
Y89000D01*
X93000D01*
G37*
G36*
Y97000D02*Y95000D01*
X101000D01*
Y97000D01*
X93000D01*
G37*
G36*
X81000Y93000D02*Y91000D01*
X89000D01*
Y93000D01*
X81000D01*
G37*
G36*
X52500Y79500D02*Y74500D01*
X60500D01*
Y79500D01*
X52500D01*
G37*
G36*
X64500D02*Y74500D01*
X72500D01*
Y79500D01*
X64500D01*
G37*
G36*
X65000Y93000D02*Y91000D01*
X73000D01*
Y93000D01*
X65000D01*
G37*
G36*
Y101000D02*Y99000D01*
X73000D01*
Y101000D01*
X65000D01*
G37*
G36*
X53000Y97000D02*Y95000D01*
X61000D01*
Y97000D01*
X53000D01*
G37*
G54D17*X20000Y87500D03*
G54D18*G54D14*G54D19*G54D14*M02*
